<svg xmlns="http://www.w3.org/2000/svg" viewBox="0 0 64 64" role="img" aria-label="Weather Pulse NZ">
  <defs>
    <linearGradient id="sky" x1="0" y1="0" x2="1" y2="1">
      <stop offset="0%" stop-color="#0b3d5c"/>
      <stop offset="100%" stop-color="#1a6b8a"/>
    </linearGradient>
    <linearGradient id="sun" x1="0" y1="0" x2="0" y2="1">
      <stop offset="0%" stop-color="#ffd36a"/>
      <stop offset="100%" stop-color="#ecb22e"/>
    </linearGradient>
  </defs>
  <circle cx="32" cy="32" r="32" fill="url(#sky)"/>
  <circle cx="38" cy="24" r="11" fill="url(#sun)"/>
  <path fill="#f4fbff" d="M18 36.5c0-4.2 3.3-7.6 7.4-7.6 1.2 0 2.3.3 3.3.8A8.1 8.1 0 0 1 42 32.2c4.1.3 7.3 3.7 7.3 7.8 0 4.3-3.5 7.8-7.8 7.8H25.6C21.4 47.8 18 44.4 18 40.2c0-1.3.3-2.5.9-3.7z"/>
  <path fill="none" stroke="#ecb22e" stroke-width="2.4" stroke-linecap="round" stroke-linejoin="round"
        d="M16 48h6l3.2-5.5 4.1 9.2 3.5-6.2H48"/>
</svg>
